<?xml version="1.0" encoding="utf-8"?>
<!DOCTYPE svg PUBLIC "-//W3C//DTD SVG 20010904//EN" "http://www.w3.org/TR/2001/REC-SVG-20010904/DTD/svg10.dtd">
<svg version="1.0" xmlns="http://www.w3.org/2000/svg" width="500pt" height="500pt" viewBox="0 0 500 500" style="" preserveAspectRatio="xMidYMid meet">
<g fill="#1DB1F8FF" stroke="#1DB1F8FF">
<path d="M 399.888 159.361 C 398.452 159.987 395.720 161.850 393.818 163.500 C 390.659 166.240 389.755 167.597 388.152 172.000 C 387.852 172.825 387.457 201.577 387.274 235.893 C 386.981 290.787 387.134 298.949 388.542 303.791 C 390.577 310.792 393.957 314.332 401.000 316.835 C 401.825 317.129 418.830 317.495 438.789 317.649 C 471.178 317.900 475.478 317.748 478.789 316.233 C 483.818 313.932 489.704 307.591 489.940 304.219 C 490.352 298.318 490.018 295.957 488.428 293.530 C 487.516 292.138 487.042 291.000 487.375 291.000 C 488.941 291.000 484.061 286.629 480.500 284.842 C 476.812 282.991 474.690 282.845 453.321 282.970 C 435.900 283.072 429.628 282.785 428.071 281.812 C 426.147 280.611 426.000 279.586 426.000 267.382 C 426.000 256.367 426.268 254.023 427.658 252.872 C 428.929 251.820 433.556 251.500 447.476 251.500 L 465.636 251.500 469.892 248.687 C 472.313 247.086 474.589 244.608 475.172 242.937 C 475.735 241.322 476.574 240.000 477.036 240.000 C 477.498 240.000 477.875 239.213 477.874 238.250 C 477.873 237.288 477.994 235.825 478.143 235.000 C 478.559 232.683 476.886 226.000 475.889 226.000 C 475.400 226.000 475.000 225.424 475.000 224.721 C 475.000 224.017 474.040 222.780 472.866 221.971 C 471.692 221.162 469.926 219.665 468.942 218.644 C 467.958 217.623 466.700 217.067 466.146 217.410 C 465.592 217.752 464.901 217.649 464.611 217.180 C 464.321 216.710 456.085 216.221 446.309 216.092 C 435.705 215.953 428.023 215.434 427.267 214.807 C 425.492 213.334 425.477 194.037 427.250 193.913 C 427.938 193.864 439.075 193.747 452.000 193.652 C 470.353 193.517 476.157 193.158 478.500 192.012 C 482.638 189.988 487.991 184.578 488.601 181.803 C 489.433 178.020 489.702 172.569 489.110 171.500 C 488.805 170.950 488.475 169.968 488.377 169.319 C 488.087 167.410 484.602 163.066 483.333 163.031 C 482.692 163.014 482.017 162.663 481.833 162.250 C 481.650 161.838 479.829 160.728 477.786 159.783 C 474.484 158.257 470.098 158.075 438.286 158.144 C 413.866 158.197 401.671 158.583 399.888 159.361 "/></g>
<g fill="#1DB1F8FF" stroke="#1DB1F8FF">
<path d="M 232.744 159.313 C 230.854 159.760 228.001 161.403 226.404 162.965 C 222.627 166.657 220.755 169.000 221.583 169.000 C 221.947 169.000 221.704 169.651 221.044 170.447 C 219.638 172.142 219.895 180.629 221.438 183.426 C 222.807 185.909 228.000 191.533 228.000 190.533 C 228.000 190.113 229.238 190.593 230.750 191.600 C 233.089 193.156 236.033 193.477 250.444 193.742 C 259.763 193.914 267.514 194.181 267.669 194.336 C 267.824 194.491 267.985 219.066 268.026 248.947 C 268.098 301.597 268.164 303.400 270.142 307.279 C 272.850 312.586 274.878 314.645 279.040 316.313 C 283.358 318.044 294.305 317.810 296.000 315.952 C 296.275 315.650 297.912 314.418 299.639 313.213 C 301.365 312.008 303.061 309.892 303.408 308.511 C 303.754 307.130 304.458 306.000 304.971 306.000 C 305.535 306.000 305.931 284.412 305.975 251.303 C 306.038 202.520 306.220 196.414 307.654 194.830 C 309.078 193.256 310.991 193.079 324.381 193.277 C 338.739 193.489 339.752 193.374 344.500 191.000 C 347.250 189.625 349.944 187.488 350.487 186.250 C 351.030 185.013 351.844 184.000 352.296 184.000 C 352.748 184.000 352.840 183.550 352.500 183.000 C 352.160 182.450 352.326 182.000 352.869 182.000 C 353.707 182.000 353.685 178.312 352.790 169.250 C 352.722 168.563 352.217 168.000 351.667 168.000 C 351.117 168.000 350.930 167.737 351.251 167.415 C 352.037 166.629 348.859 163.000 347.385 163.000 C 346.741 163.000 345.944 162.296 345.614 161.437 C 345.284 160.577 344.561 160.153 344.007 160.496 C 343.453 160.838 343.000 160.669 343.000 160.121 C 343.000 159.573 342.213 159.135 341.250 159.149 C 340.288 159.162 316.253 159.022 287.840 158.837 C 259.426 158.651 234.633 158.866 232.744 159.313 "/></g>
<g fill="#1DB1F8FF" stroke="#1DB1F8FF">
<path d="M 20.500 159.518 C 17.207 160.928 10.776 167.443 11.733 168.400 C 12.063 168.730 11.883 169.000 11.333 169.000 C 10.783 169.000 10.193 169.563 10.021 170.250 C 9.849 170.938 9.566 200.975 9.392 237.000 C 9.091 299.425 9.164 302.688 10.959 306.514 C 13.015 310.897 16.956 314.810 21.243 316.725 C 23.284 317.637 33.894 317.893 62.743 317.725 C 97.373 317.524 101.838 317.315 104.671 315.765 C 107.789 314.060 112.010 309.098 112.372 306.714 C 112.473 306.046 112.830 305.050 113.164 304.500 C 114.036 303.064 113.317 297.286 111.650 292.339 C 110.611 289.255 105.362 285.446 99.000 283.159 C 98.175 282.862 86.475 282.485 73.000 282.320 C 59.525 282.156 48.183 282.017 47.796 282.011 C 47.410 282.005 46.960 256.676 46.796 225.725 C 46.573 183.243 46.201 169.088 45.278 167.975 C 42.554 164.686 39.398 161.400 37.667 160.048 C 35.282 158.186 24.396 157.850 20.500 159.518 "/></g>
<g fill="#1DB1F8FF" stroke="#1DB1F8FF">
<path d="M 159.000 159.768 C 155.933 161.015 149.146 167.146 148.918 168.876 C 148.873 169.219 148.535 170.850 148.168 172.500 C 147.290 176.442 147.299 299.508 148.177 303.841 C 148.549 305.678 149.674 308.152 150.677 309.338 C 153.696 312.910 157.045 315.992 158.052 316.125 C 159.938 316.374 160.517 316.541 161.500 317.119 C 163.552 318.327 174.202 317.039 177.685 315.162 C 180.147 313.835 183.977 309.311 183.252 308.586 C 182.930 308.264 183.117 308.000 183.667 308.000 C 184.217 308.000 184.709 307.438 184.761 306.750 C 184.913 304.729 185.035 172.573 184.886 171.750 C 184.811 171.338 184.638 170.550 184.500 170.000 C 184.363 169.450 184.194 168.611 184.125 168.136 C 183.880 166.442 178.518 161.824 175.039 160.312 C 170.314 158.258 163.299 158.020 159.000 159.768 "/></g>
<g fill="#95ECEEFF" stroke="#95ECEEFF">
<path d="M 32.500 156.949 C 29.638 157.726 29.617 157.769 32.050 157.882 C 36.166 158.073 42.848 163.054 45.028 167.557 C 46.916 171.457 47.000 173.926 47.000 225.234 C 47.000 254.715 47.273 279.548 47.607 280.418 C 48.137 281.799 51.223 282.001 71.857 282.006 C 97.084 282.012 101.373 282.591 106.859 286.732 C 110.648 289.592 113.956 296.010 113.956 300.500 C 113.956 304.730 110.767 311.247 107.376 313.946 L 104.500 316.234 108.000 315.521 C 121.012 312.870 126.540 296.674 117.683 287.153 C 116.483 285.862 113.700 283.839 111.500 282.657 C 107.792 280.666 105.640 280.472 82.000 280.005 L 56.500 279.500 56.000 224.500 C 55.505 170.076 55.477 169.457 53.281 165.351 C 49.487 158.255 40.732 154.716 32.500 156.949 "/></g>
<g fill="#95ECEEFF" stroke="#95ECEEFF">
<path d="M 172.000 156.912 L 168.500 157.561 171.500 158.341 C 176.774 159.713 182.056 163.909 184.057 168.316 C 185.860 172.288 185.957 175.801 185.972 237.500 C 185.983 278.614 185.615 303.848 184.970 306.168 C 184.395 308.240 182.405 311.193 180.397 312.957 L 176.842 316.078 179.671 315.392 C 186.452 313.750 189.825 311.307 192.642 306.000 C 194.386 302.716 194.520 298.620 194.819 239.500 C 195.154 173.302 194.909 168.696 190.771 163.436 C 188.589 160.662 179.648 155.926 177.000 156.141 C 176.175 156.208 173.925 156.555 172.000 156.912 "/></g>
<g fill="#CEF6F7FF" stroke="#CEF6F7FF">
<path d="M 42.155 156.485 C 47.976 158.626 50.957 161.010 53.308 165.403 C 55.469 169.442 55.507 170.280 56.000 224.500 L 56.500 279.500 82.000 280.005 C 105.640 280.472 107.792 280.666 111.500 282.657 C 113.700 283.839 116.483 285.862 117.683 287.153 C 123.899 293.835 123.304 304.782 116.361 311.469 L 113.500 314.225 116.500 313.547 C 131.394 310.183 134.684 290.779 121.806 282.251 L 117.652 279.500 93.076 279.246 C 79.559 279.106 67.488 278.760 66.250 278.477 L 64.000 277.962 63.994 224.731 C 63.991 191.200 63.607 170.124 62.956 167.781 C 61.726 163.352 57.848 158.490 53.931 156.464 C 52.264 155.602 48.508 155.029 44.800 155.070 L 38.500 155.141 42.155 156.485 "/></g>
<g fill="#CEF6F7FF" stroke="#CEF6F7FF">
<path d="M 178.000 155.472 C 178.000 155.732 180.260 156.917 183.023 158.105 C 189.418 160.856 192.555 164.611 193.994 171.238 C 194.804 174.965 195.045 194.874 194.819 239.500 C 194.519 298.770 194.389 302.707 192.631 306.000 C 191.602 307.925 189.577 310.542 188.131 311.816 L 185.500 314.133 188.500 313.488 C 194.082 312.290 198.141 308.934 200.657 303.438 L 203.056 298.198 202.778 232.849 L 202.500 167.500 199.895 163.500 C 196.511 158.303 190.000 155.000 183.140 155.000 C 180.313 155.000 178.000 155.212 178.000 155.472 "/></g>
<g fill="#95ECEEFF" stroke="#95ECEEFF">
<path d="M 307.200 195.200 C 306.296 196.104 306.000 209.815 306.000 250.766 C 306.000 288.926 305.666 305.783 304.880 307.316 C 304.264 308.517 302.376 310.963 300.684 312.750 C 298.733 314.811 298.137 315.992 299.054 315.978 C 301.476 315.941 308.387 312.409 310.345 310.207 C 314.768 305.234 314.910 303.292 314.956 247.250 L 315.000 194.000 311.700 194.000 C 309.885 194.000 307.860 194.540 307.200 195.200 "/></g>
<g fill="#CEF6F7FF" stroke="#CEF6F7FF">
<path d="M 314.994 246.750 C 314.991 281.956 314.624 300.815 313.891 303.453 C 313.288 305.627 311.277 308.923 309.423 310.777 L 306.053 314.147 309.276 313.464 C 313.496 312.570 318.563 308.699 320.751 304.698 C 322.344 301.785 322.525 296.716 322.783 247.750 L 323.066 194.000 319.033 194.000 L 315.000 194.000 314.994 246.750 "/></g>
<g fill="#95ECEEFF" stroke="#95ECEEFF">
<path d="M 427.438 253.300 C 427.164 254.016 427.065 260.653 427.220 268.050 L 427.500 281.500 452.577 282.000 L 477.653 282.500 481.802 285.248 C 488.505 289.688 491.152 295.388 490.211 303.360 C 489.880 306.167 488.616 308.409 485.579 311.578 C 481.743 315.582 481.611 315.890 483.952 315.359 C 494.999 312.856 500.997 303.607 498.018 293.667 C 496.719 289.329 491.518 283.634 487.087 281.694 C 485.518 281.008 474.854 280.353 460.000 280.031 L 435.500 279.500 435.222 265.750 L 434.944 252.000 431.440 252.000 C 429.488 252.000 427.716 252.576 427.438 253.300 "/></g>
<g fill="#95ECEEFF" stroke="#95ECEEFF">
<path d="M 426.607 195.582 C 425.437 198.631 425.945 213.710 427.255 214.796 C 427.994 215.410 436.331 215.974 447.548 216.169 L 466.586 216.500 470.823 219.858 C 476.148 224.078 478.231 228.061 478.231 234.024 C 478.231 239.207 477.020 242.144 473.191 246.250 C 470.361 249.284 470.724 249.482 476.285 247.938 C 478.898 247.212 480.980 245.630 483.012 242.825 C 488.273 235.562 488.195 227.570 482.802 221.428 C 477.150 214.990 475.532 214.566 454.500 214.006 L 435.500 213.500 435.214 203.750 L 434.928 194.000 431.071 194.000 C 428.476 194.000 427.015 194.518 426.607 195.582 "/></g>
<g fill="#95ECEEFF" stroke="#95ECEEFF">
<path d="M 245.000 156.960 C 243.075 157.367 264.069 157.880 291.653 158.100 L 341.805 158.500 346.153 161.604 C 351.541 165.452 353.996 170.056 353.998 176.316 C 354.000 181.674 353.002 184.143 349.128 188.361 L 346.500 191.223 350.000 190.535 C 357.593 189.041 362.429 182.803 362.429 174.500 C 362.429 167.863 359.757 163.363 353.531 159.513 L 348.660 156.500 298.580 156.360 C 271.036 156.283 246.925 156.553 245.000 156.960 "/></g>
<g fill="#CEF6F7FF" stroke="#CEF6F7FF">
<path d="M 435.214 203.750 L 435.500 213.500 454.500 214.006 C 475.054 214.553 476.807 214.975 482.186 220.661 C 487.406 226.178 488.330 232.621 484.913 239.680 C 483.765 242.052 481.635 244.929 480.179 246.074 L 477.533 248.155 480.516 247.415 C 488.223 245.503 495.031 237.508 494.978 230.434 C 494.940 225.385 491.492 219.354 486.906 216.316 C 482.681 213.518 482.538 213.498 464.102 213.186 C 453.000 212.998 445.038 212.447 444.275 211.813 C 443.427 211.110 443.000 207.948 443.000 202.378 L 443.000 194.000 438.964 194.000 L 434.928 194.000 435.214 203.750 "/></g>
<g fill="#95ECEEFF" stroke="#95ECEEFF">
<path d="M 412.500 156.980 C 410.850 157.389 424.839 157.899 443.587 158.112 L 477.675 158.500 481.996 161.496 C 491.423 168.032 492.598 179.529 484.689 187.858 L 481.500 191.216 485.000 190.531 C 494.732 188.627 500.356 178.930 497.435 169.093 C 495.808 163.616 493.252 160.918 487.000 158.084 C 482.742 156.154 480.696 156.049 449.000 156.140 C 430.575 156.193 414.150 156.571 412.500 156.980 "/></g>
<g fill="#CEF6F7FF" stroke="#CEF6F7FF">
<path d="M 435.222 265.750 L 435.500 279.500 460.000 280.034 C 473.475 280.327 485.400 280.969 486.500 281.460 C 493.531 284.599 498.956 292.020 498.956 298.500 C 498.956 302.687 495.775 309.245 492.491 311.829 C 489.215 314.406 490.449 314.605 495.980 312.391 L 500.000 310.783 500.000 296.912 L 500.000 283.041 496.040 281.020 C 492.401 279.164 490.184 279.000 468.740 279.000 C 451.920 279.000 445.065 278.665 444.200 277.800 C 443.397 276.997 443.000 272.533 443.000 264.300 L 443.000 252.000 438.972 252.000 L 434.944 252.000 435.222 265.750 "/></g>
<g fill="#CEF6F7FF" stroke="#CEF6F7FF">
<path d="M 299.500 155.969 L 348.500 156.500 353.313 159.329 C 361.034 163.868 364.149 171.021 361.953 179.175 C 361.330 181.487 359.335 184.865 357.518 186.682 C 354.225 189.975 354.223 189.982 356.858 189.329 C 364.185 187.514 371.000 179.403 371.000 172.500 C 371.000 167.057 367.199 161.155 361.640 157.967 L 356.500 155.019 303.500 155.228 L 250.500 155.437 299.500 155.969 "/></g>
<g fill="#CEF6F7FF" stroke="#CEF6F7FF">
<path d="M 451.000 155.968 C 487.092 156.541 487.534 156.607 493.768 162.308 C 496.056 164.401 499.229 173.030 498.539 175.283 C 498.335 175.952 497.898 177.729 497.569 179.232 C 497.240 180.734 495.581 183.547 493.882 185.482 C 491.454 188.247 491.156 189.000 492.492 189.000 C 493.427 189.000 495.510 188.221 497.122 187.269 L 500.053 185.537 499.777 172.136 L 499.500 158.734 496.016 156.867 C 492.769 155.127 489.971 155.015 455.016 155.218 L 417.500 155.436 451.000 155.968 "/></g>
</svg>
