<svg xmlns="http://www.w3.org/2000/svg" xmlns:xlink="http://www.w3.org/1999/xlink" width="500" zoomAndPan="magnify" viewBox="0 0 375 374.999991" height="500" preserveAspectRatio="xMidYMid meet" version="1.0"><defs><g/></defs><g fill="#5ce1e6" fill-opacity="0.302"><g transform="translate(88.817156, 214.721866)"><g><path d="M 19.648438 -51.28125 C 19.648438 -51.933594 19.484375 -52.585938 19.242188 -53.402344 C 18.996094 -54.136719 18.589844 -54.871094 18.101562 -55.523438 C 17.527344 -56.175781 16.796875 -56.664062 15.980469 -57.152344 C 15.164062 -57.558594 14.105469 -57.804688 12.964844 -57.804688 C 11.820312 -57.804688 10.761719 -57.558594 9.945312 -57.152344 C 9.132812 -56.746094 8.398438 -56.257812 7.828125 -55.605469 C 7.175781 -54.953125 6.765625 -54.300781 6.441406 -53.566406 C 6.113281 -52.75 6.035156 -52.015625 6.035156 -51.28125 L 6.035156 -6.441406 C 6.035156 -5.707031 6.113281 -4.972656 6.441406 -4.238281 C 6.765625 -3.425781 7.175781 -2.773438 7.746094 -2.121094 C 8.316406 -1.46875 9.050781 -0.898438 9.863281 -0.488281 C 10.679688 -0.0820312 11.742188 0.0820312 12.882812 0.0820312 L 36.851562 0.0820312 C 37.992188 0.0820312 38.972656 -0.0820312 39.867188 -0.488281 C 40.683594 -0.898438 41.417969 -1.386719 41.988281 -2.039062 C 42.558594 -2.691406 42.964844 -3.34375 43.292969 -4.15625 C 43.539062 -4.890625 43.699219 -5.625 43.699219 -6.359375 C 43.699219 -7.09375 43.539062 -7.828125 43.210938 -8.640625 C 42.886719 -9.375 42.476562 -10.027344 41.90625 -10.679688 C 41.253906 -11.25 40.519531 -11.742188 39.707031 -12.148438 C 38.890625 -12.554688 37.910156 -12.800781 36.769531 -12.800781 L 20.707031 -12.800781 C 20.546875 -12.800781 20.300781 -12.882812 20.054688 -13.042969 C 19.730469 -13.207031 19.648438 -13.535156 19.648438 -14.023438 Z M 19.648438 -51.28125 "/></g></g></g><g fill="#5ce1e6" fill-opacity="0.302"><g transform="translate(138.795214, 214.721866)"><g><path d="M 5.953125 -6.359375 C 5.953125 -5.542969 6.113281 -4.808594 6.441406 -4.078125 C 6.765625 -3.261719 7.175781 -2.609375 7.828125 -2.039062 C 8.398438 -1.386719 9.132812 -0.898438 10.027344 -0.570312 C 10.84375 -0.164062 11.820312 0 12.964844 0 C 14.105469 0 15.082031 -0.164062 15.980469 -0.570312 C 16.796875 -0.976562 17.527344 -1.46875 18.101562 -2.121094 C 18.671875 -2.773438 19.078125 -3.425781 19.402344 -4.238281 C 19.648438 -4.972656 19.8125 -5.707031 19.8125 -6.441406 L 19.8125 -51.28125 C 19.8125 -52.015625 19.648438 -52.75 19.324219 -53.566406 C 18.996094 -54.300781 18.589844 -54.953125 18.019531 -55.605469 C 17.367188 -56.175781 16.632812 -56.664062 15.816406 -57.070312 C 15 -57.480469 14.023438 -57.722656 12.882812 -57.722656 C 11.742188 -57.722656 10.679688 -57.480469 9.863281 -57.070312 C 9.050781 -56.664062 8.316406 -56.175781 7.746094 -55.523438 C 7.09375 -54.871094 6.683594 -54.21875 6.359375 -53.484375 C 6.035156 -52.667969 5.953125 -51.933594 5.953125 -51.28125 Z M 5.953125 -6.359375 "/></g></g></g><g fill="#5ce1e6" fill-opacity="0.302"><g transform="translate(164.80337, 214.721866)"><g><path d="M 12.882812 -57.640625 C 11.742188 -57.640625 10.679688 -57.398438 9.863281 -56.988281 C 9.050781 -56.582031 8.316406 -56.09375 7.746094 -55.441406 C 7.09375 -54.789062 6.683594 -54.136719 6.359375 -53.402344 C 6.035156 -52.585938 5.953125 -51.851562 5.953125 -51.199219 C 5.953125 -50.386719 6.113281 -49.570312 6.441406 -48.835938 C 6.765625 -48.101562 7.175781 -47.449219 7.828125 -46.878906 C 8.398438 -46.226562 9.132812 -45.738281 10.027344 -45.414062 C 10.84375 -45.085938 11.820312 -44.921875 12.964844 -44.921875 L 22.421875 -44.921875 C 22.582031 -44.921875 22.828125 -44.761719 23.074219 -44.597656 C 23.316406 -44.351562 23.480469 -44.027344 23.480469 -43.617188 L 23.480469 -6.441406 C 23.480469 -5.707031 23.5625 -4.972656 23.886719 -4.238281 C 24.214844 -3.425781 24.621094 -2.773438 25.191406 -2.121094 C 25.761719 -1.46875 26.496094 -0.898438 27.3125 -0.488281 C 28.128906 -0.0820312 29.1875 0.0820312 30.328125 0.0820312 C 31.46875 0.0820312 32.449219 -0.0820312 33.347656 -0.488281 C 34.160156 -0.898438 34.894531 -1.386719 35.464844 -2.039062 C 36.035156 -2.691406 36.445312 -3.34375 36.769531 -4.15625 C 37.015625 -4.890625 37.179688 -5.625 37.179688 -6.359375 L 37.179688 -43.539062 C 37.179688 -43.945312 37.257812 -44.269531 37.585938 -44.515625 C 37.828125 -44.679688 38.074219 -44.839844 38.238281 -44.839844 L 47.695312 -44.839844 C 48.835938 -44.839844 49.816406 -45.003906 50.710938 -45.414062 C 51.527344 -45.820312 52.261719 -46.308594 52.832031 -46.960938 C 53.402344 -47.53125 53.808594 -48.183594 54.136719 -49 C 54.378906 -49.816406 54.542969 -50.546875 54.542969 -51.28125 C 54.542969 -51.933594 54.378906 -52.667969 54.054688 -53.484375 C 53.726562 -54.21875 53.320312 -54.871094 52.75 -55.523438 C 52.097656 -56.09375 51.363281 -56.582031 50.546875 -56.988281 C 49.734375 -57.398438 48.753906 -57.640625 47.613281 -57.640625 Z M 12.882812 -57.640625 "/></g></g></g><g fill="#5ce1e6" fill-opacity="0.302"><g transform="translate(225.624956, 214.721866)"><g><path d="M 12.964844 0 L 36.035156 0 C 37.179688 0 38.15625 -0.164062 39.054688 -0.570312 C 39.867188 -0.976562 40.601562 -1.46875 41.171875 -2.121094 C 41.742188 -2.773438 42.152344 -3.425781 42.476562 -4.238281 C 42.722656 -4.972656 42.886719 -5.707031 42.886719 -6.441406 C 42.886719 -7.175781 42.722656 -7.910156 42.394531 -8.722656 C 42.070312 -9.457031 41.660156 -10.109375 41.089844 -10.761719 C 40.4375 -11.332031 39.707031 -11.820312 38.890625 -12.230469 C 38.074219 -12.636719 37.097656 -12.882812 35.953125 -12.882812 L 20.789062 -12.882812 C 20.628906 -12.882812 20.382812 -12.964844 20.136719 -13.125 C 19.8125 -13.289062 19.730469 -13.617188 19.730469 -14.105469 L 19.730469 -22.582031 C 19.730469 -22.992188 19.8125 -23.316406 20.136719 -23.5625 C 20.382812 -23.726562 20.628906 -23.886719 20.789062 -23.886719 L 31.714844 -23.886719 C 32.855469 -23.886719 33.835938 -24.050781 34.648438 -24.460938 C 35.464844 -24.867188 36.199219 -25.355469 36.769531 -26.007812 C 37.339844 -26.660156 37.75 -27.3125 38.074219 -28.128906 C 38.402344 -28.863281 38.5625 -29.59375 38.5625 -30.328125 C 38.5625 -31.0625 38.402344 -31.796875 38.074219 -32.613281 C 37.75 -33.347656 37.339844 -34 36.769531 -34.648438 C 36.117188 -35.222656 35.382812 -35.710938 34.570312 -36.117188 C 33.753906 -36.527344 32.773438 -36.769531 31.632812 -36.769531 L 20.707031 -36.769531 C 20.546875 -36.769531 20.300781 -36.851562 20.054688 -37.015625 C 19.730469 -37.179688 19.648438 -37.503906 19.648438 -37.992188 L 19.648438 -43.617188 C 19.648438 -44.027344 19.730469 -44.351562 20.054688 -44.597656 C 20.300781 -44.761719 20.546875 -44.921875 20.707031 -44.921875 L 35.875 -44.921875 C 37.015625 -44.921875 37.992188 -45.085938 38.890625 -45.492188 C 39.707031 -45.902344 40.4375 -46.390625 41.007812 -47.042969 C 41.582031 -47.613281 41.988281 -48.265625 42.3125 -49.082031 C 42.558594 -49.816406 42.722656 -50.546875 42.722656 -51.28125 C 42.722656 -52.015625 42.558594 -52.75 42.234375 -53.566406 C 41.90625 -54.300781 41.5 -54.953125 40.929688 -55.605469 C 40.277344 -56.175781 39.542969 -56.664062 38.726562 -57.070312 C 37.910156 -57.480469 36.933594 -57.722656 35.792969 -57.722656 L 12.71875 -57.722656 C 11.578125 -57.722656 10.515625 -57.480469 9.703125 -57.070312 C 8.886719 -56.664062 8.152344 -56.175781 7.582031 -55.523438 C 6.929688 -54.871094 6.523438 -54.21875 6.195312 -53.484375 C 5.871094 -52.667969 5.789062 -51.933594 5.789062 -51.28125 L 5.789062 -6.359375 C 5.789062 -5.542969 5.953125 -4.730469 6.277344 -3.996094 C 6.605469 -3.179688 7.09375 -2.527344 7.746094 -1.957031 C 8.398438 -1.304688 9.132812 -0.816406 10.027344 -0.488281 C 10.925781 -0.164062 11.902344 0 12.964844 0 Z M 12.964844 0 "/></g></g></g><g fill="#5ce1e6" fill-opacity="0.502"><g transform="translate(85.726896, 215.378732)"><g><path d="M 19.648438 -51.28125 C 19.648438 -51.933594 19.484375 -52.585938 19.242188 -53.402344 C 18.996094 -54.136719 18.589844 -54.871094 18.101562 -55.523438 C 17.527344 -56.175781 16.796875 -56.664062 15.980469 -57.152344 C 15.164062 -57.558594 14.105469 -57.804688 12.964844 -57.804688 C 11.820312 -57.804688 10.761719 -57.558594 9.945312 -57.152344 C 9.132812 -56.746094 8.398438 -56.257812 7.828125 -55.605469 C 7.175781 -54.953125 6.765625 -54.300781 6.441406 -53.566406 C 6.113281 -52.75 6.035156 -52.015625 6.035156 -51.28125 L 6.035156 -6.441406 C 6.035156 -5.707031 6.113281 -4.972656 6.441406 -4.238281 C 6.765625 -3.425781 7.175781 -2.773438 7.746094 -2.121094 C 8.316406 -1.46875 9.050781 -0.898438 9.863281 -0.488281 C 10.679688 -0.0820312 11.742188 0.0820312 12.882812 0.0820312 L 36.851562 0.0820312 C 37.992188 0.0820312 38.972656 -0.0820312 39.867188 -0.488281 C 40.683594 -0.898438 41.417969 -1.386719 41.988281 -2.039062 C 42.558594 -2.691406 42.964844 -3.34375 43.292969 -4.15625 C 43.539062 -4.890625 43.699219 -5.625 43.699219 -6.359375 C 43.699219 -7.09375 43.539062 -7.828125 43.210938 -8.640625 C 42.886719 -9.375 42.476562 -10.027344 41.90625 -10.679688 C 41.253906 -11.25 40.519531 -11.742188 39.707031 -12.148438 C 38.890625 -12.554688 37.910156 -12.800781 36.769531 -12.800781 L 20.707031 -12.800781 C 20.546875 -12.800781 20.300781 -12.882812 20.054688 -13.042969 C 19.730469 -13.207031 19.648438 -13.535156 19.648438 -14.023438 Z M 19.648438 -51.28125 "/></g></g></g><g fill="#5ce1e6" fill-opacity="0.502"><g transform="translate(135.704954, 215.378732)"><g><path d="M 5.953125 -6.359375 C 5.953125 -5.542969 6.113281 -4.808594 6.441406 -4.078125 C 6.765625 -3.261719 7.175781 -2.609375 7.828125 -2.039062 C 8.398438 -1.386719 9.132812 -0.898438 10.027344 -0.570312 C 10.84375 -0.164062 11.820312 0 12.964844 0 C 14.105469 0 15.082031 -0.164062 15.980469 -0.570312 C 16.796875 -0.976562 17.527344 -1.46875 18.101562 -2.121094 C 18.671875 -2.773438 19.078125 -3.425781 19.402344 -4.238281 C 19.648438 -4.972656 19.8125 -5.707031 19.8125 -6.441406 L 19.8125 -51.28125 C 19.8125 -52.015625 19.648438 -52.75 19.324219 -53.566406 C 18.996094 -54.300781 18.589844 -54.953125 18.019531 -55.605469 C 17.367188 -56.175781 16.632812 -56.664062 15.816406 -57.070312 C 15 -57.480469 14.023438 -57.722656 12.882812 -57.722656 C 11.742188 -57.722656 10.679688 -57.480469 9.863281 -57.070312 C 9.050781 -56.664062 8.316406 -56.175781 7.746094 -55.523438 C 7.09375 -54.871094 6.683594 -54.21875 6.359375 -53.484375 C 6.035156 -52.667969 5.953125 -51.933594 5.953125 -51.28125 Z M 5.953125 -6.359375 "/></g></g></g><g fill="#5ce1e6" fill-opacity="0.502"><g transform="translate(161.71311, 215.378732)"><g><path d="M 12.882812 -57.640625 C 11.742188 -57.640625 10.679688 -57.398438 9.863281 -56.988281 C 9.050781 -56.582031 8.316406 -56.09375 7.746094 -55.441406 C 7.09375 -54.789062 6.683594 -54.136719 6.359375 -53.402344 C 6.035156 -52.585938 5.953125 -51.851562 5.953125 -51.199219 C 5.953125 -50.386719 6.113281 -49.570312 6.441406 -48.835938 C 6.765625 -48.101562 7.175781 -47.449219 7.828125 -46.878906 C 8.398438 -46.226562 9.132812 -45.738281 10.027344 -45.414062 C 10.84375 -45.085938 11.820312 -44.921875 12.964844 -44.921875 L 22.421875 -44.921875 C 22.582031 -44.921875 22.828125 -44.761719 23.074219 -44.597656 C 23.316406 -44.351562 23.480469 -44.027344 23.480469 -43.617188 L 23.480469 -6.441406 C 23.480469 -5.707031 23.5625 -4.972656 23.886719 -4.238281 C 24.214844 -3.425781 24.621094 -2.773438 25.191406 -2.121094 C 25.761719 -1.46875 26.496094 -0.898438 27.3125 -0.488281 C 28.128906 -0.0820312 29.1875 0.0820312 30.328125 0.0820312 C 31.46875 0.0820312 32.449219 -0.0820312 33.347656 -0.488281 C 34.160156 -0.898438 34.894531 -1.386719 35.464844 -2.039062 C 36.035156 -2.691406 36.445312 -3.34375 36.769531 -4.15625 C 37.015625 -4.890625 37.179688 -5.625 37.179688 -6.359375 L 37.179688 -43.539062 C 37.179688 -43.945312 37.257812 -44.269531 37.585938 -44.515625 C 37.828125 -44.679688 38.074219 -44.839844 38.238281 -44.839844 L 47.695312 -44.839844 C 48.835938 -44.839844 49.816406 -45.003906 50.710938 -45.414062 C 51.527344 -45.820312 52.261719 -46.308594 52.832031 -46.960938 C 53.402344 -47.53125 53.808594 -48.183594 54.136719 -49 C 54.378906 -49.816406 54.542969 -50.546875 54.542969 -51.28125 C 54.542969 -51.933594 54.378906 -52.667969 54.054688 -53.484375 C 53.726562 -54.21875 53.320312 -54.871094 52.75 -55.523438 C 52.097656 -56.09375 51.363281 -56.582031 50.546875 -56.988281 C 49.734375 -57.398438 48.753906 -57.640625 47.613281 -57.640625 Z M 12.882812 -57.640625 "/></g></g></g><g fill="#5ce1e6" fill-opacity="0.502"><g transform="translate(222.534696, 215.378732)"><g><path d="M 12.964844 0 L 36.035156 0 C 37.179688 0 38.15625 -0.164062 39.054688 -0.570312 C 39.867188 -0.976562 40.601562 -1.46875 41.171875 -2.121094 C 41.742188 -2.773438 42.152344 -3.425781 42.476562 -4.238281 C 42.722656 -4.972656 42.886719 -5.707031 42.886719 -6.441406 C 42.886719 -7.175781 42.722656 -7.910156 42.394531 -8.722656 C 42.070312 -9.457031 41.660156 -10.109375 41.089844 -10.761719 C 40.4375 -11.332031 39.707031 -11.820312 38.890625 -12.230469 C 38.074219 -12.636719 37.097656 -12.882812 35.953125 -12.882812 L 20.789062 -12.882812 C 20.628906 -12.882812 20.382812 -12.964844 20.136719 -13.125 C 19.8125 -13.289062 19.730469 -13.617188 19.730469 -14.105469 L 19.730469 -22.582031 C 19.730469 -22.992188 19.8125 -23.316406 20.136719 -23.5625 C 20.382812 -23.726562 20.628906 -23.886719 20.789062 -23.886719 L 31.714844 -23.886719 C 32.855469 -23.886719 33.835938 -24.050781 34.648438 -24.460938 C 35.464844 -24.867188 36.199219 -25.355469 36.769531 -26.007812 C 37.339844 -26.660156 37.75 -27.3125 38.074219 -28.128906 C 38.402344 -28.863281 38.5625 -29.59375 38.5625 -30.328125 C 38.5625 -31.0625 38.402344 -31.796875 38.074219 -32.613281 C 37.75 -33.347656 37.339844 -34 36.769531 -34.648438 C 36.117188 -35.222656 35.382812 -35.710938 34.570312 -36.117188 C 33.753906 -36.527344 32.773438 -36.769531 31.632812 -36.769531 L 20.707031 -36.769531 C 20.546875 -36.769531 20.300781 -36.851562 20.054688 -37.015625 C 19.730469 -37.179688 19.648438 -37.503906 19.648438 -37.992188 L 19.648438 -43.617188 C 19.648438 -44.027344 19.730469 -44.351562 20.054688 -44.597656 C 20.300781 -44.761719 20.546875 -44.921875 20.707031 -44.921875 L 35.875 -44.921875 C 37.015625 -44.921875 37.992188 -45.085938 38.890625 -45.492188 C 39.707031 -45.902344 40.4375 -46.390625 41.007812 -47.042969 C 41.582031 -47.613281 41.988281 -48.265625 42.3125 -49.082031 C 42.558594 -49.816406 42.722656 -50.546875 42.722656 -51.28125 C 42.722656 -52.015625 42.558594 -52.75 42.234375 -53.566406 C 41.90625 -54.300781 41.5 -54.953125 40.929688 -55.605469 C 40.277344 -56.175781 39.542969 -56.664062 38.726562 -57.070312 C 37.910156 -57.480469 36.933594 -57.722656 35.792969 -57.722656 L 12.71875 -57.722656 C 11.578125 -57.722656 10.515625 -57.480469 9.703125 -57.070312 C 8.886719 -56.664062 8.152344 -56.175781 7.582031 -55.523438 C 6.929688 -54.871094 6.523438 -54.21875 6.195312 -53.484375 C 5.871094 -52.667969 5.789062 -51.933594 5.789062 -51.28125 L 5.789062 -6.359375 C 5.789062 -5.542969 5.953125 -4.730469 6.277344 -3.996094 C 6.605469 -3.179688 7.09375 -2.527344 7.746094 -1.957031 C 8.398438 -1.304688 9.132812 -0.816406 10.027344 -0.488281 C 10.925781 -0.164062 11.902344 0 12.964844 0 Z M 12.964844 0 "/></g></g></g><g fill="#1db1f8" fill-opacity="1"><g transform="translate(82.636638, 216.035583)"><g><path d="M 19.648438 -51.28125 C 19.648438 -51.933594 19.484375 -52.585938 19.242188 -53.402344 C 18.996094 -54.136719 18.589844 -54.871094 18.101562 -55.523438 C 17.527344 -56.175781 16.796875 -56.664062 15.980469 -57.152344 C 15.164062 -57.558594 14.105469 -57.804688 12.964844 -57.804688 C 11.820312 -57.804688 10.761719 -57.558594 9.945312 -57.152344 C 9.132812 -56.746094 8.398438 -56.257812 7.828125 -55.605469 C 7.175781 -54.953125 6.765625 -54.300781 6.441406 -53.566406 C 6.113281 -52.75 6.035156 -52.015625 6.035156 -51.28125 L 6.035156 -6.441406 C 6.035156 -5.707031 6.113281 -4.972656 6.441406 -4.238281 C 6.765625 -3.425781 7.175781 -2.773438 7.746094 -2.121094 C 8.316406 -1.46875 9.050781 -0.898438 9.863281 -0.488281 C 10.679688 -0.0820312 11.742188 0.0820312 12.882812 0.0820312 L 36.851562 0.0820312 C 37.992188 0.0820312 38.972656 -0.0820312 39.867188 -0.488281 C 40.683594 -0.898438 41.417969 -1.386719 41.988281 -2.039062 C 42.558594 -2.691406 42.964844 -3.34375 43.292969 -4.15625 C 43.539062 -4.890625 43.699219 -5.625 43.699219 -6.359375 C 43.699219 -7.09375 43.539062 -7.828125 43.210938 -8.640625 C 42.886719 -9.375 42.476562 -10.027344 41.90625 -10.679688 C 41.253906 -11.25 40.519531 -11.742188 39.707031 -12.148438 C 38.890625 -12.554688 37.910156 -12.800781 36.769531 -12.800781 L 20.707031 -12.800781 C 20.546875 -12.800781 20.300781 -12.882812 20.054688 -13.042969 C 19.730469 -13.207031 19.648438 -13.535156 19.648438 -14.023438 Z M 19.648438 -51.28125 "/></g></g></g><g fill="#1db1f8" fill-opacity="1"><g transform="translate(132.614696, 216.035583)"><g><path d="M 5.953125 -6.359375 C 5.953125 -5.542969 6.113281 -4.808594 6.441406 -4.078125 C 6.765625 -3.261719 7.175781 -2.609375 7.828125 -2.039062 C 8.398438 -1.386719 9.132812 -0.898438 10.027344 -0.570312 C 10.84375 -0.164062 11.820312 0 12.964844 0 C 14.105469 0 15.082031 -0.164062 15.980469 -0.570312 C 16.796875 -0.976562 17.527344 -1.46875 18.101562 -2.121094 C 18.671875 -2.773438 19.078125 -3.425781 19.402344 -4.238281 C 19.648438 -4.972656 19.8125 -5.707031 19.8125 -6.441406 L 19.8125 -51.28125 C 19.8125 -52.015625 19.648438 -52.75 19.324219 -53.566406 C 18.996094 -54.300781 18.589844 -54.953125 18.019531 -55.605469 C 17.367188 -56.175781 16.632812 -56.664062 15.816406 -57.070312 C 15 -57.480469 14.023438 -57.722656 12.882812 -57.722656 C 11.742188 -57.722656 10.679688 -57.480469 9.863281 -57.070312 C 9.050781 -56.664062 8.316406 -56.175781 7.746094 -55.523438 C 7.09375 -54.871094 6.683594 -54.21875 6.359375 -53.484375 C 6.035156 -52.667969 5.953125 -51.933594 5.953125 -51.28125 Z M 5.953125 -6.359375 "/></g></g></g><g fill="#1db1f8" fill-opacity="1"><g transform="translate(158.622852, 216.035583)"><g><path d="M 12.882812 -57.640625 C 11.742188 -57.640625 10.679688 -57.398438 9.863281 -56.988281 C 9.050781 -56.582031 8.316406 -56.09375 7.746094 -55.441406 C 7.09375 -54.789062 6.683594 -54.136719 6.359375 -53.402344 C 6.035156 -52.585938 5.953125 -51.851562 5.953125 -51.199219 C 5.953125 -50.386719 6.113281 -49.570312 6.441406 -48.835938 C 6.765625 -48.101562 7.175781 -47.449219 7.828125 -46.878906 C 8.398438 -46.226562 9.132812 -45.738281 10.027344 -45.414062 C 10.84375 -45.085938 11.820312 -44.921875 12.964844 -44.921875 L 22.421875 -44.921875 C 22.582031 -44.921875 22.828125 -44.761719 23.074219 -44.597656 C 23.316406 -44.351562 23.480469 -44.027344 23.480469 -43.617188 L 23.480469 -6.441406 C 23.480469 -5.707031 23.5625 -4.972656 23.886719 -4.238281 C 24.214844 -3.425781 24.621094 -2.773438 25.191406 -2.121094 C 25.761719 -1.46875 26.496094 -0.898438 27.3125 -0.488281 C 28.128906 -0.0820312 29.1875 0.0820312 30.328125 0.0820312 C 31.46875 0.0820312 32.449219 -0.0820312 33.347656 -0.488281 C 34.160156 -0.898438 34.894531 -1.386719 35.464844 -2.039062 C 36.035156 -2.691406 36.445312 -3.34375 36.769531 -4.15625 C 37.015625 -4.890625 37.179688 -5.625 37.179688 -6.359375 L 37.179688 -43.539062 C 37.179688 -43.945312 37.257812 -44.269531 37.585938 -44.515625 C 37.828125 -44.679688 38.074219 -44.839844 38.238281 -44.839844 L 47.695312 -44.839844 C 48.835938 -44.839844 49.816406 -45.003906 50.710938 -45.414062 C 51.527344 -45.820312 52.261719 -46.308594 52.832031 -46.960938 C 53.402344 -47.53125 53.808594 -48.183594 54.136719 -49 C 54.378906 -49.816406 54.542969 -50.546875 54.542969 -51.28125 C 54.542969 -51.933594 54.378906 -52.667969 54.054688 -53.484375 C 53.726562 -54.21875 53.320312 -54.871094 52.75 -55.523438 C 52.097656 -56.09375 51.363281 -56.582031 50.546875 -56.988281 C 49.734375 -57.398438 48.753906 -57.640625 47.613281 -57.640625 Z M 12.882812 -57.640625 "/></g></g></g><g fill="#1db1f8" fill-opacity="1"><g transform="translate(219.444438, 216.035583)"><g><path d="M 12.964844 0 L 36.035156 0 C 37.179688 0 38.15625 -0.164062 39.054688 -0.570312 C 39.867188 -0.976562 40.601562 -1.46875 41.171875 -2.121094 C 41.742188 -2.773438 42.152344 -3.425781 42.476562 -4.238281 C 42.722656 -4.972656 42.886719 -5.707031 42.886719 -6.441406 C 42.886719 -7.175781 42.722656 -7.910156 42.394531 -8.722656 C 42.070312 -9.457031 41.660156 -10.109375 41.089844 -10.761719 C 40.4375 -11.332031 39.707031 -11.820312 38.890625 -12.230469 C 38.074219 -12.636719 37.097656 -12.882812 35.953125 -12.882812 L 20.789062 -12.882812 C 20.628906 -12.882812 20.382812 -12.964844 20.136719 -13.125 C 19.8125 -13.289062 19.730469 -13.617188 19.730469 -14.105469 L 19.730469 -22.582031 C 19.730469 -22.992188 19.8125 -23.316406 20.136719 -23.5625 C 20.382812 -23.726562 20.628906 -23.886719 20.789062 -23.886719 L 31.714844 -23.886719 C 32.855469 -23.886719 33.835938 -24.050781 34.648438 -24.460938 C 35.464844 -24.867188 36.199219 -25.355469 36.769531 -26.007812 C 37.339844 -26.660156 37.75 -27.3125 38.074219 -28.128906 C 38.402344 -28.863281 38.5625 -29.59375 38.5625 -30.328125 C 38.5625 -31.0625 38.402344 -31.796875 38.074219 -32.613281 C 37.75 -33.347656 37.339844 -34 36.769531 -34.648438 C 36.117188 -35.222656 35.382812 -35.710938 34.570312 -36.117188 C 33.753906 -36.527344 32.773438 -36.769531 31.632812 -36.769531 L 20.707031 -36.769531 C 20.546875 -36.769531 20.300781 -36.851562 20.054688 -37.015625 C 19.730469 -37.179688 19.648438 -37.503906 19.648438 -37.992188 L 19.648438 -43.617188 C 19.648438 -44.027344 19.730469 -44.351562 20.054688 -44.597656 C 20.300781 -44.761719 20.546875 -44.921875 20.707031 -44.921875 L 35.875 -44.921875 C 37.015625 -44.921875 37.992188 -45.085938 38.890625 -45.492188 C 39.707031 -45.902344 40.4375 -46.390625 41.007812 -47.042969 C 41.582031 -47.613281 41.988281 -48.265625 42.3125 -49.082031 C 42.558594 -49.816406 42.722656 -50.546875 42.722656 -51.28125 C 42.722656 -52.015625 42.558594 -52.75 42.234375 -53.566406 C 41.90625 -54.300781 41.5 -54.953125 40.929688 -55.605469 C 40.277344 -56.175781 39.542969 -56.664062 38.726562 -57.070312 C 37.910156 -57.480469 36.933594 -57.722656 35.792969 -57.722656 L 12.71875 -57.722656 C 11.578125 -57.722656 10.515625 -57.480469 9.703125 -57.070312 C 8.886719 -56.664062 8.152344 -56.175781 7.582031 -55.523438 C 6.929688 -54.871094 6.523438 -54.21875 6.195312 -53.484375 C 5.871094 -52.667969 5.789062 -51.933594 5.789062 -51.28125 L 5.789062 -6.359375 C 5.789062 -5.542969 5.953125 -4.730469 6.277344 -3.996094 C 6.605469 -3.179688 7.09375 -2.527344 7.746094 -1.957031 C 8.398438 -1.304688 9.132812 -0.816406 10.027344 -0.488281 C 10.925781 -0.164062 11.902344 0 12.964844 0 Z M 12.964844 0 "/></g></g></g></svg>