<svg xmlns="http://www.w3.org/2000/svg" xmlns:xlink="http://www.w3.org/1999/xlink" width="500" zoomAndPan="magnify" viewBox="0 0 375 374.999991" height="500" preserveAspectRatio="xMidYMid meet" version="1.0"><defs><g/></defs><rect x="-37.5" width="450" fill="#ffffff" y="-37.499999" height="449.999989" fill-opacity="1"/><rect x="-37.5" width="450" fill="#ffffff" y="-37.499999" height="449.999989" fill-opacity="1"/><rect x="-37.5" width="450" fill="#ffffff" y="-37.499999" height="449.999989" fill-opacity="1"/><g fill="#5ce1e6" fill-opacity="0.302"><g transform="translate(7.255157, 235.688627)"><g><path d="M 40.820312 -106.535156 C 40.820312 -107.890625 40.480469 -109.246094 39.972656 -110.9375 C 39.464844 -112.460938 38.617188 -113.988281 37.601562 -115.34375 C 36.414062 -116.695312 34.890625 -117.714844 33.195312 -118.730469 C 31.503906 -119.578125 29.300781 -120.085938 26.929688 -120.085938 C 24.558594 -120.085938 22.355469 -119.578125 20.664062 -118.730469 C 18.96875 -117.882812 17.445312 -116.867188 16.257812 -115.511719 C 14.90625 -114.15625 14.058594 -112.800781 13.378906 -111.277344 C 12.703125 -109.582031 12.535156 -108.058594 12.535156 -106.535156 L 12.535156 -13.378906 C 12.535156 -11.855469 12.703125 -10.332031 13.378906 -8.808594 C 14.058594 -7.113281 14.90625 -5.757812 16.089844 -4.402344 C 17.277344 -3.046875 18.800781 -1.863281 20.492188 -1.015625 C 22.1875 -0.167969 24.390625 0.167969 26.761719 0.167969 L 76.554688 0.167969 C 78.925781 0.167969 80.960938 -0.167969 82.824219 -1.015625 C 84.515625 -1.863281 86.039062 -2.878906 87.226562 -4.234375 C 88.410156 -5.589844 89.257812 -6.945312 89.9375 -8.636719 C 90.445312 -10.164062 90.785156 -11.6875 90.785156 -13.210938 C 90.785156 -14.734375 90.445312 -16.257812 89.765625 -17.953125 C 89.089844 -19.476562 88.242188 -20.832031 87.058594 -22.1875 C 85.703125 -23.375 84.175781 -24.390625 82.484375 -25.238281 C 80.789062 -26.082031 78.757812 -26.589844 76.386719 -26.589844 L 43.019531 -26.589844 C 42.683594 -26.589844 42.171875 -26.761719 41.664062 -27.097656 C 40.988281 -27.4375 40.820312 -28.117188 40.820312 -29.132812 Z M 40.820312 -106.535156 "/></g></g></g><g fill="#5ce1e6" fill-opacity="0.302"><g transform="translate(111.08004, 235.688627)"><g><path d="M 12.363281 -13.210938 C 12.363281 -11.515625 12.703125 -9.992188 13.378906 -8.46875 C 14.058594 -6.773438 14.90625 -5.417969 16.257812 -4.234375 C 17.445312 -2.878906 18.96875 -1.863281 20.832031 -1.1875 C 22.527344 -0.339844 24.558594 0 26.929688 0 C 29.300781 0 31.332031 -0.339844 33.195312 -1.1875 C 34.890625 -2.03125 36.414062 -3.046875 37.601562 -4.402344 C 38.785156 -5.757812 39.632812 -7.113281 40.308594 -8.808594 C 40.820312 -10.332031 41.15625 -11.855469 41.15625 -13.378906 L 41.15625 -106.535156 C 41.15625 -108.058594 40.820312 -109.582031 40.140625 -111.277344 C 39.464844 -112.800781 38.617188 -114.15625 37.429688 -115.511719 C 36.074219 -116.695312 34.550781 -117.714844 32.859375 -118.558594 C 31.164062 -119.40625 29.132812 -119.914062 26.761719 -119.914062 C 24.390625 -119.914062 22.1875 -119.40625 20.492188 -118.558594 C 18.800781 -117.714844 17.277344 -116.695312 16.089844 -115.34375 C 14.734375 -113.988281 13.886719 -112.632812 13.210938 -111.109375 C 12.535156 -109.414062 12.363281 -107.890625 12.363281 -106.535156 Z M 12.363281 -13.210938 "/></g></g></g><g fill="#5ce1e6" fill-opacity="0.302"><g transform="translate(165.109628, 235.688627)"><g><path d="M 26.761719 -119.746094 C 24.390625 -119.746094 22.1875 -119.238281 20.492188 -118.390625 C 18.800781 -117.542969 17.277344 -116.527344 16.089844 -115.171875 C 14.734375 -113.816406 13.886719 -112.460938 13.210938 -110.9375 C 12.535156 -109.246094 12.363281 -107.71875 12.363281 -106.367188 C 12.363281 -104.671875 12.703125 -102.976562 13.378906 -101.453125 C 14.058594 -99.929688 14.90625 -98.574219 16.257812 -97.390625 C 17.445312 -96.035156 18.96875 -95.015625 20.832031 -94.339844 C 22.527344 -93.664062 24.558594 -93.324219 26.929688 -93.324219 L 46.578125 -93.324219 C 46.914062 -93.324219 47.425781 -92.984375 47.933594 -92.644531 C 48.441406 -92.136719 48.777344 -91.460938 48.777344 -90.613281 L 48.777344 -13.378906 C 48.777344 -11.855469 48.949219 -10.332031 49.625 -8.808594 C 50.304688 -7.113281 51.148438 -5.757812 52.335938 -4.402344 C 53.519531 -3.046875 55.046875 -1.863281 56.738281 -1.015625 C 58.433594 -0.167969 60.636719 0.167969 63.007812 0.167969 C 65.378906 0.167969 67.410156 -0.167969 69.273438 -1.015625 C 70.964844 -1.863281 72.492188 -2.878906 73.675781 -4.234375 C 74.863281 -5.589844 75.710938 -6.945312 76.386719 -8.636719 C 76.894531 -10.164062 77.234375 -11.6875 77.234375 -13.210938 L 77.234375 -90.445312 C 77.234375 -91.292969 77.402344 -91.96875 78.082031 -92.476562 C 78.589844 -92.816406 79.097656 -93.15625 79.433594 -93.15625 L 99.082031 -93.15625 C 101.453125 -93.15625 103.484375 -93.492188 105.347656 -94.339844 C 107.042969 -95.1875 108.566406 -96.203125 109.753906 -97.558594 C 110.9375 -98.742188 111.785156 -100.097656 112.460938 -101.792969 C 112.972656 -103.484375 113.308594 -105.011719 113.308594 -106.535156 C 113.308594 -107.890625 112.972656 -109.414062 112.292969 -111.109375 C 111.617188 -112.632812 110.769531 -113.988281 109.582031 -115.34375 C 108.226562 -116.527344 106.703125 -117.542969 105.011719 -118.390625 C 103.316406 -119.238281 101.285156 -119.746094 98.914062 -119.746094 Z M 26.761719 -119.746094 "/></g></g></g><g fill="#5ce1e6" fill-opacity="0.302"><g transform="translate(291.460957, 235.688627)"><g><path d="M 26.929688 0 L 74.863281 0 C 77.234375 0 79.265625 -0.339844 81.128906 -1.1875 C 82.824219 -2.03125 84.347656 -3.046875 85.53125 -4.402344 C 86.71875 -5.757812 87.566406 -7.113281 88.242188 -8.808594 C 88.75 -10.332031 89.089844 -11.855469 89.089844 -13.378906 C 89.089844 -14.90625 88.75 -16.429688 88.074219 -18.121094 C 87.394531 -19.648438 86.550781 -21.003906 85.363281 -22.355469 C 84.007812 -23.542969 82.484375 -24.558594 80.789062 -25.40625 C 79.097656 -26.253906 77.0625 -26.761719 74.691406 -26.761719 L 43.191406 -26.761719 C 42.851562 -26.761719 42.34375 -26.929688 41.835938 -27.269531 C 41.15625 -27.609375 40.988281 -28.285156 40.988281 -29.300781 L 40.988281 -46.914062 C 40.988281 -47.761719 41.15625 -48.441406 41.835938 -48.949219 C 42.34375 -49.289062 42.851562 -49.625 43.191406 -49.625 L 65.886719 -49.625 C 68.257812 -49.625 70.289062 -49.964844 71.984375 -50.8125 C 73.675781 -51.660156 75.199219 -52.675781 76.386719 -54.03125 C 77.570312 -55.382812 78.417969 -56.738281 79.097656 -58.433594 C 79.773438 -59.957031 80.113281 -61.480469 80.113281 -63.007812 C 80.113281 -64.53125 79.773438 -66.054688 79.097656 -67.75 C 78.417969 -69.273438 77.570312 -70.628906 76.386719 -71.984375 C 75.03125 -73.167969 73.507812 -74.183594 71.8125 -75.03125 C 70.121094 -75.878906 68.085938 -76.386719 65.714844 -76.386719 L 43.019531 -76.386719 C 42.683594 -76.386719 42.171875 -76.554688 41.664062 -76.894531 C 40.988281 -77.234375 40.820312 -77.910156 40.820312 -78.925781 L 40.820312 -90.613281 C 40.820312 -91.460938 40.988281 -92.136719 41.664062 -92.644531 C 42.171875 -92.984375 42.683594 -93.324219 43.019531 -93.324219 L 74.523438 -93.324219 C 76.894531 -93.324219 78.925781 -93.664062 80.789062 -94.507812 C 82.484375 -95.355469 84.007812 -96.371094 85.195312 -97.726562 C 86.378906 -98.914062 87.226562 -100.269531 87.902344 -101.960938 C 88.410156 -103.484375 88.75 -105.011719 88.75 -106.535156 C 88.75 -108.058594 88.410156 -109.582031 87.734375 -111.277344 C 87.058594 -112.800781 86.210938 -114.15625 85.023438 -115.511719 C 83.667969 -116.695312 82.144531 -117.714844 80.453125 -118.558594 C 78.757812 -119.40625 76.726562 -119.914062 74.355469 -119.914062 L 26.421875 -119.914062 C 24.050781 -119.914062 21.847656 -119.40625 20.15625 -118.558594 C 18.460938 -117.714844 16.9375 -116.695312 15.75 -115.34375 C 14.398438 -113.988281 13.550781 -112.632812 12.871094 -111.109375 C 12.195312 -109.414062 12.023438 -107.890625 12.023438 -106.535156 L 12.023438 -13.210938 C 12.023438 -11.515625 12.363281 -9.824219 13.042969 -8.300781 C 13.71875 -6.605469 14.734375 -5.25 16.089844 -4.066406 C 17.445312 -2.710938 18.96875 -1.695312 20.832031 -1.015625 C 22.695312 -0.339844 24.726562 0 26.929688 0 Z M 26.929688 0 "/></g></g></g><g fill="#5ce1e6" fill-opacity="0.502"><g transform="translate(0.835422, 237.053186)"><g><path d="M 40.820312 -106.535156 C 40.820312 -107.890625 40.480469 -109.246094 39.972656 -110.9375 C 39.464844 -112.460938 38.617188 -113.988281 37.601562 -115.34375 C 36.414062 -116.695312 34.890625 -117.714844 33.195312 -118.730469 C 31.503906 -119.578125 29.300781 -120.085938 26.929688 -120.085938 C 24.558594 -120.085938 22.355469 -119.578125 20.664062 -118.730469 C 18.96875 -117.882812 17.445312 -116.867188 16.257812 -115.511719 C 14.90625 -114.15625 14.058594 -112.800781 13.378906 -111.277344 C 12.703125 -109.582031 12.535156 -108.058594 12.535156 -106.535156 L 12.535156 -13.378906 C 12.535156 -11.855469 12.703125 -10.332031 13.378906 -8.808594 C 14.058594 -7.113281 14.90625 -5.757812 16.089844 -4.402344 C 17.277344 -3.046875 18.800781 -1.863281 20.492188 -1.015625 C 22.1875 -0.167969 24.390625 0.167969 26.761719 0.167969 L 76.554688 0.167969 C 78.925781 0.167969 80.960938 -0.167969 82.824219 -1.015625 C 84.515625 -1.863281 86.039062 -2.878906 87.226562 -4.234375 C 88.410156 -5.589844 89.257812 -6.945312 89.9375 -8.636719 C 90.445312 -10.164062 90.785156 -11.6875 90.785156 -13.210938 C 90.785156 -14.734375 90.445312 -16.257812 89.765625 -17.953125 C 89.089844 -19.476562 88.242188 -20.832031 87.058594 -22.1875 C 85.703125 -23.375 84.175781 -24.390625 82.484375 -25.238281 C 80.789062 -26.082031 78.757812 -26.589844 76.386719 -26.589844 L 43.019531 -26.589844 C 42.683594 -26.589844 42.171875 -26.761719 41.664062 -27.097656 C 40.988281 -27.4375 40.820312 -28.117188 40.820312 -29.132812 Z M 40.820312 -106.535156 "/></g></g></g><g fill="#5ce1e6" fill-opacity="0.502"><g transform="translate(104.660305, 237.053186)"><g><path d="M 12.363281 -13.210938 C 12.363281 -11.515625 12.703125 -9.992188 13.378906 -8.46875 C 14.058594 -6.773438 14.90625 -5.417969 16.257812 -4.234375 C 17.445312 -2.878906 18.96875 -1.863281 20.832031 -1.1875 C 22.527344 -0.339844 24.558594 0 26.929688 0 C 29.300781 0 31.332031 -0.339844 33.195312 -1.1875 C 34.890625 -2.03125 36.414062 -3.046875 37.601562 -4.402344 C 38.785156 -5.757812 39.632812 -7.113281 40.308594 -8.808594 C 40.820312 -10.332031 41.15625 -11.855469 41.15625 -13.378906 L 41.15625 -106.535156 C 41.15625 -108.058594 40.820312 -109.582031 40.140625 -111.277344 C 39.464844 -112.800781 38.617188 -114.15625 37.429688 -115.511719 C 36.074219 -116.695312 34.550781 -117.714844 32.859375 -118.558594 C 31.164062 -119.40625 29.132812 -119.914062 26.761719 -119.914062 C 24.390625 -119.914062 22.1875 -119.40625 20.492188 -118.558594 C 18.800781 -117.714844 17.277344 -116.695312 16.089844 -115.34375 C 14.734375 -113.988281 13.886719 -112.632812 13.210938 -111.109375 C 12.535156 -109.414062 12.363281 -107.890625 12.363281 -106.535156 Z M 12.363281 -13.210938 "/></g></g></g><g fill="#5ce1e6" fill-opacity="0.502"><g transform="translate(158.689892, 237.053186)"><g><path d="M 26.761719 -119.746094 C 24.390625 -119.746094 22.1875 -119.238281 20.492188 -118.390625 C 18.800781 -117.542969 17.277344 -116.527344 16.089844 -115.171875 C 14.734375 -113.816406 13.886719 -112.460938 13.210938 -110.9375 C 12.535156 -109.246094 12.363281 -107.71875 12.363281 -106.367188 C 12.363281 -104.671875 12.703125 -102.976562 13.378906 -101.453125 C 14.058594 -99.929688 14.90625 -98.574219 16.257812 -97.390625 C 17.445312 -96.035156 18.96875 -95.015625 20.832031 -94.339844 C 22.527344 -93.664062 24.558594 -93.324219 26.929688 -93.324219 L 46.578125 -93.324219 C 46.914062 -93.324219 47.425781 -92.984375 47.933594 -92.644531 C 48.441406 -92.136719 48.777344 -91.460938 48.777344 -90.613281 L 48.777344 -13.378906 C 48.777344 -11.855469 48.949219 -10.332031 49.625 -8.808594 C 50.304688 -7.113281 51.148438 -5.757812 52.335938 -4.402344 C 53.519531 -3.046875 55.046875 -1.863281 56.738281 -1.015625 C 58.433594 -0.167969 60.636719 0.167969 63.007812 0.167969 C 65.378906 0.167969 67.410156 -0.167969 69.273438 -1.015625 C 70.964844 -1.863281 72.492188 -2.878906 73.675781 -4.234375 C 74.863281 -5.589844 75.710938 -6.945312 76.386719 -8.636719 C 76.894531 -10.164062 77.234375 -11.6875 77.234375 -13.210938 L 77.234375 -90.445312 C 77.234375 -91.292969 77.402344 -91.96875 78.082031 -92.476562 C 78.589844 -92.816406 79.097656 -93.15625 79.433594 -93.15625 L 99.082031 -93.15625 C 101.453125 -93.15625 103.484375 -93.492188 105.347656 -94.339844 C 107.042969 -95.1875 108.566406 -96.203125 109.753906 -97.558594 C 110.9375 -98.742188 111.785156 -100.097656 112.460938 -101.792969 C 112.972656 -103.484375 113.308594 -105.011719 113.308594 -106.535156 C 113.308594 -107.890625 112.972656 -109.414062 112.292969 -111.109375 C 111.617188 -112.632812 110.769531 -113.988281 109.582031 -115.34375 C 108.226562 -116.527344 106.703125 -117.542969 105.011719 -118.390625 C 103.316406 -119.238281 101.285156 -119.746094 98.914062 -119.746094 Z M 26.761719 -119.746094 "/></g></g></g><g fill="#5ce1e6" fill-opacity="0.502"><g transform="translate(285.041222, 237.053186)"><g><path d="M 26.929688 0 L 74.863281 0 C 77.234375 0 79.265625 -0.339844 81.128906 -1.1875 C 82.824219 -2.03125 84.347656 -3.046875 85.53125 -4.402344 C 86.71875 -5.757812 87.566406 -7.113281 88.242188 -8.808594 C 88.75 -10.332031 89.089844 -11.855469 89.089844 -13.378906 C 89.089844 -14.90625 88.75 -16.429688 88.074219 -18.121094 C 87.394531 -19.648438 86.550781 -21.003906 85.363281 -22.355469 C 84.007812 -23.542969 82.484375 -24.558594 80.789062 -25.40625 C 79.097656 -26.253906 77.0625 -26.761719 74.691406 -26.761719 L 43.191406 -26.761719 C 42.851562 -26.761719 42.34375 -26.929688 41.835938 -27.269531 C 41.15625 -27.609375 40.988281 -28.285156 40.988281 -29.300781 L 40.988281 -46.914062 C 40.988281 -47.761719 41.15625 -48.441406 41.835938 -48.949219 C 42.34375 -49.289062 42.851562 -49.625 43.191406 -49.625 L 65.886719 -49.625 C 68.257812 -49.625 70.289062 -49.964844 71.984375 -50.8125 C 73.675781 -51.660156 75.199219 -52.675781 76.386719 -54.03125 C 77.570312 -55.382812 78.417969 -56.738281 79.097656 -58.433594 C 79.773438 -59.957031 80.113281 -61.480469 80.113281 -63.007812 C 80.113281 -64.53125 79.773438 -66.054688 79.097656 -67.75 C 78.417969 -69.273438 77.570312 -70.628906 76.386719 -71.984375 C 75.03125 -73.167969 73.507812 -74.183594 71.8125 -75.03125 C 70.121094 -75.878906 68.085938 -76.386719 65.714844 -76.386719 L 43.019531 -76.386719 C 42.683594 -76.386719 42.171875 -76.554688 41.664062 -76.894531 C 40.988281 -77.234375 40.820312 -77.910156 40.820312 -78.925781 L 40.820312 -90.613281 C 40.820312 -91.460938 40.988281 -92.136719 41.664062 -92.644531 C 42.171875 -92.984375 42.683594 -93.324219 43.019531 -93.324219 L 74.523438 -93.324219 C 76.894531 -93.324219 78.925781 -93.664062 80.789062 -94.507812 C 82.484375 -95.355469 84.007812 -96.371094 85.195312 -97.726562 C 86.378906 -98.914062 87.226562 -100.269531 87.902344 -101.960938 C 88.410156 -103.484375 88.75 -105.011719 88.75 -106.535156 C 88.75 -108.058594 88.410156 -109.582031 87.734375 -111.277344 C 87.058594 -112.800781 86.210938 -114.15625 85.023438 -115.511719 C 83.667969 -116.695312 82.144531 -117.714844 80.453125 -118.558594 C 78.757812 -119.40625 76.726562 -119.914062 74.355469 -119.914062 L 26.421875 -119.914062 C 24.050781 -119.914062 21.847656 -119.40625 20.15625 -118.558594 C 18.460938 -117.714844 16.9375 -116.695312 15.75 -115.34375 C 14.398438 -113.988281 13.550781 -112.632812 12.871094 -111.109375 C 12.195312 -109.414062 12.023438 -107.890625 12.023438 -106.535156 L 12.023438 -13.210938 C 12.023438 -11.515625 12.363281 -9.824219 13.042969 -8.300781 C 13.71875 -6.605469 14.734375 -5.25 16.089844 -4.066406 C 17.445312 -2.710938 18.96875 -1.695312 20.832031 -1.015625 C 22.695312 -0.339844 24.726562 0 26.929688 0 Z M 26.929688 0 "/></g></g></g><g fill="#1db1f8" fill-opacity="1"><g transform="translate(-5.584307, 238.417739)"><g><path d="M 40.820312 -106.535156 C 40.820312 -107.890625 40.480469 -109.246094 39.972656 -110.9375 C 39.464844 -112.460938 38.617188 -113.988281 37.601562 -115.34375 C 36.414062 -116.695312 34.890625 -117.714844 33.195312 -118.730469 C 31.503906 -119.578125 29.300781 -120.085938 26.929688 -120.085938 C 24.558594 -120.085938 22.355469 -119.578125 20.664062 -118.730469 C 18.96875 -117.882812 17.445312 -116.867188 16.257812 -115.511719 C 14.90625 -114.15625 14.058594 -112.800781 13.378906 -111.277344 C 12.703125 -109.582031 12.535156 -108.058594 12.535156 -106.535156 L 12.535156 -13.378906 C 12.535156 -11.855469 12.703125 -10.332031 13.378906 -8.808594 C 14.058594 -7.113281 14.90625 -5.757812 16.089844 -4.402344 C 17.277344 -3.046875 18.800781 -1.863281 20.492188 -1.015625 C 22.1875 -0.167969 24.390625 0.167969 26.761719 0.167969 L 76.554688 0.167969 C 78.925781 0.167969 80.960938 -0.167969 82.824219 -1.015625 C 84.515625 -1.863281 86.039062 -2.878906 87.226562 -4.234375 C 88.410156 -5.589844 89.257812 -6.945312 89.9375 -8.636719 C 90.445312 -10.164062 90.785156 -11.6875 90.785156 -13.210938 C 90.785156 -14.734375 90.445312 -16.257812 89.765625 -17.953125 C 89.089844 -19.476562 88.242188 -20.832031 87.058594 -22.1875 C 85.703125 -23.375 84.175781 -24.390625 82.484375 -25.238281 C 80.789062 -26.082031 78.757812 -26.589844 76.386719 -26.589844 L 43.019531 -26.589844 C 42.683594 -26.589844 42.171875 -26.761719 41.664062 -27.097656 C 40.988281 -27.4375 40.820312 -28.117188 40.820312 -29.132812 Z M 40.820312 -106.535156 "/></g></g></g><g fill="#1db1f8" fill-opacity="1"><g transform="translate(98.240576, 238.417739)"><g><path d="M 12.363281 -13.210938 C 12.363281 -11.515625 12.703125 -9.992188 13.378906 -8.46875 C 14.058594 -6.773438 14.90625 -5.417969 16.257812 -4.234375 C 17.445312 -2.878906 18.96875 -1.863281 20.832031 -1.1875 C 22.527344 -0.339844 24.558594 0 26.929688 0 C 29.300781 0 31.332031 -0.339844 33.195312 -1.1875 C 34.890625 -2.03125 36.414062 -3.046875 37.601562 -4.402344 C 38.785156 -5.757812 39.632812 -7.113281 40.308594 -8.808594 C 40.820312 -10.332031 41.15625 -11.855469 41.15625 -13.378906 L 41.15625 -106.535156 C 41.15625 -108.058594 40.820312 -109.582031 40.140625 -111.277344 C 39.464844 -112.800781 38.617188 -114.15625 37.429688 -115.511719 C 36.074219 -116.695312 34.550781 -117.714844 32.859375 -118.558594 C 31.164062 -119.40625 29.132812 -119.914062 26.761719 -119.914062 C 24.390625 -119.914062 22.1875 -119.40625 20.492188 -118.558594 C 18.800781 -117.714844 17.277344 -116.695312 16.089844 -115.34375 C 14.734375 -113.988281 13.886719 -112.632812 13.210938 -111.109375 C 12.535156 -109.414062 12.363281 -107.890625 12.363281 -106.535156 Z M 12.363281 -13.210938 "/></g></g></g><g fill="#1db1f8" fill-opacity="1"><g transform="translate(152.270164, 238.417739)"><g><path d="M 26.761719 -119.746094 C 24.390625 -119.746094 22.1875 -119.238281 20.492188 -118.390625 C 18.800781 -117.542969 17.277344 -116.527344 16.089844 -115.171875 C 14.734375 -113.816406 13.886719 -112.460938 13.210938 -110.9375 C 12.535156 -109.246094 12.363281 -107.71875 12.363281 -106.367188 C 12.363281 -104.671875 12.703125 -102.976562 13.378906 -101.453125 C 14.058594 -99.929688 14.90625 -98.574219 16.257812 -97.390625 C 17.445312 -96.035156 18.96875 -95.015625 20.832031 -94.339844 C 22.527344 -93.664062 24.558594 -93.324219 26.929688 -93.324219 L 46.578125 -93.324219 C 46.914062 -93.324219 47.425781 -92.984375 47.933594 -92.644531 C 48.441406 -92.136719 48.777344 -91.460938 48.777344 -90.613281 L 48.777344 -13.378906 C 48.777344 -11.855469 48.949219 -10.332031 49.625 -8.808594 C 50.304688 -7.113281 51.148438 -5.757812 52.335938 -4.402344 C 53.519531 -3.046875 55.046875 -1.863281 56.738281 -1.015625 C 58.433594 -0.167969 60.636719 0.167969 63.007812 0.167969 C 65.378906 0.167969 67.410156 -0.167969 69.273438 -1.015625 C 70.964844 -1.863281 72.492188 -2.878906 73.675781 -4.234375 C 74.863281 -5.589844 75.710938 -6.945312 76.386719 -8.636719 C 76.894531 -10.164062 77.234375 -11.6875 77.234375 -13.210938 L 77.234375 -90.445312 C 77.234375 -91.292969 77.402344 -91.96875 78.082031 -92.476562 C 78.589844 -92.816406 79.097656 -93.15625 79.433594 -93.15625 L 99.082031 -93.15625 C 101.453125 -93.15625 103.484375 -93.492188 105.347656 -94.339844 C 107.042969 -95.1875 108.566406 -96.203125 109.753906 -97.558594 C 110.9375 -98.742188 111.785156 -100.097656 112.460938 -101.792969 C 112.972656 -103.484375 113.308594 -105.011719 113.308594 -106.535156 C 113.308594 -107.890625 112.972656 -109.414062 112.292969 -111.109375 C 111.617188 -112.632812 110.769531 -113.988281 109.582031 -115.34375 C 108.226562 -116.527344 106.703125 -117.542969 105.011719 -118.390625 C 103.316406 -119.238281 101.285156 -119.746094 98.914062 -119.746094 Z M 26.761719 -119.746094 "/></g></g></g><g fill="#1db1f8" fill-opacity="1"><g transform="translate(278.621493, 238.417739)"><g><path d="M 26.929688 0 L 74.863281 0 C 77.234375 0 79.265625 -0.339844 81.128906 -1.1875 C 82.824219 -2.03125 84.347656 -3.046875 85.53125 -4.402344 C 86.71875 -5.757812 87.566406 -7.113281 88.242188 -8.808594 C 88.75 -10.332031 89.089844 -11.855469 89.089844 -13.378906 C 89.089844 -14.90625 88.75 -16.429688 88.074219 -18.121094 C 87.394531 -19.648438 86.550781 -21.003906 85.363281 -22.355469 C 84.007812 -23.542969 82.484375 -24.558594 80.789062 -25.40625 C 79.097656 -26.253906 77.0625 -26.761719 74.691406 -26.761719 L 43.191406 -26.761719 C 42.851562 -26.761719 42.34375 -26.929688 41.835938 -27.269531 C 41.15625 -27.609375 40.988281 -28.285156 40.988281 -29.300781 L 40.988281 -46.914062 C 40.988281 -47.761719 41.15625 -48.441406 41.835938 -48.949219 C 42.34375 -49.289062 42.851562 -49.625 43.191406 -49.625 L 65.886719 -49.625 C 68.257812 -49.625 70.289062 -49.964844 71.984375 -50.8125 C 73.675781 -51.660156 75.199219 -52.675781 76.386719 -54.03125 C 77.570312 -55.382812 78.417969 -56.738281 79.097656 -58.433594 C 79.773438 -59.957031 80.113281 -61.480469 80.113281 -63.007812 C 80.113281 -64.53125 79.773438 -66.054688 79.097656 -67.75 C 78.417969 -69.273438 77.570312 -70.628906 76.386719 -71.984375 C 75.03125 -73.167969 73.507812 -74.183594 71.8125 -75.03125 C 70.121094 -75.878906 68.085938 -76.386719 65.714844 -76.386719 L 43.019531 -76.386719 C 42.683594 -76.386719 42.171875 -76.554688 41.664062 -76.894531 C 40.988281 -77.234375 40.820312 -77.910156 40.820312 -78.925781 L 40.820312 -90.613281 C 40.820312 -91.460938 40.988281 -92.136719 41.664062 -92.644531 C 42.171875 -92.984375 42.683594 -93.324219 43.019531 -93.324219 L 74.523438 -93.324219 C 76.894531 -93.324219 78.925781 -93.664062 80.789062 -94.507812 C 82.484375 -95.355469 84.007812 -96.371094 85.195312 -97.726562 C 86.378906 -98.914062 87.226562 -100.269531 87.902344 -101.960938 C 88.410156 -103.484375 88.75 -105.011719 88.75 -106.535156 C 88.75 -108.058594 88.410156 -109.582031 87.734375 -111.277344 C 87.058594 -112.800781 86.210938 -114.15625 85.023438 -115.511719 C 83.667969 -116.695312 82.144531 -117.714844 80.453125 -118.558594 C 78.757812 -119.40625 76.726562 -119.914062 74.355469 -119.914062 L 26.421875 -119.914062 C 24.050781 -119.914062 21.847656 -119.40625 20.15625 -118.558594 C 18.460938 -117.714844 16.9375 -116.695312 15.75 -115.34375 C 14.398438 -113.988281 13.550781 -112.632812 12.871094 -111.109375 C 12.195312 -109.414062 12.023438 -107.890625 12.023438 -106.535156 L 12.023438 -13.210938 C 12.023438 -11.515625 12.363281 -9.824219 13.042969 -8.300781 C 13.71875 -6.605469 14.734375 -5.25 16.089844 -4.066406 C 17.445312 -2.710938 18.96875 -1.695312 20.832031 -1.015625 C 22.695312 -0.339844 24.726562 0 26.929688 0 Z M 26.929688 0 "/></g></g></g></svg>